# xmcd
#
# Track frame offsets:
#	150
#	36780
#	68758
#
# Disc length: 1505 seconds
# Revision: 2
# Processed by: cddbd v1.5.2PL0 Copyright (c) Steve Scherf et al.
# Submitted via: dBpowerAMP V12.0
#
DISCID=1f05df03
DTITLE=Lester Levenson - Private Lessons with Lester CD 06
DYEAR=1986
DGENRE=Home Study
TTITLE0=The Ultimate Freedom
TTITLE1=Confronting the Truth
TTITLE2=You Do Not Disappear
EXTD=
EXTT0=
EXTT1=
EXTT2=
PLAYORDER=
